# xmcd
#
# Track frame offsets: 
#        150
#        26453
#        46737
#        61648
#        81492
#        102033
#        127224
#        150320
#        166278
#        190536
#        215043
#        233375
#        249867
#        268220
#        280201
#
# Disc length: 4129 seconds
#
# Revision: 0
# Processed by: cddbd v1.5.2PL0 Copyright (c) Steve Scherf et al.
# Submitted via: ExactAudioCopy v1.1
#
DISCID=bd101f0f
DTITLE=SACD - 原音探究
DYEAR=2015
DGENRE=Blues
TTITLE0=霍永刚 - 走西口2
TTITLE1=雪莉 - 给我一个吻1
TTITLE2=李传韵 - 木屐舞曲
TTITLE3=邓丽君 - 北方旅客
TTITLE4=李云斯顿 泰莱 - 她不是很可爱吗
TTITLE5=吴玉霞 - 十面埋伏
TTITLE6=茜娜 - 爱你是因为情感原因
TTITLE7=内蒙古合唱团 - 八骏赞
TTITLE8=迪里拜耳 - 向往
TTITLE9=俞丽娜 - 化蝶
TTITLE10=蔡琴 - 月光小夜曲
TTITLE11=亚明 - 再坐一会儿
TTITLE12=男孩合唱团 - Walking in the air1
TTITLE13=孟楠 - 维纳斯
TTITLE14=殷承宗 - 怒吼吧黄河
EXTD=
EXTT0=
EXTT1=
EXTT2=
EXTT3=
EXTT4=
EXTT5=
EXTT6=
EXTT7=
EXTT8=
EXTT9=
EXTT10=
EXTT11=
EXTT12=
EXTT13=
EXTT14=
PLAYORDER=
